<svg width="512" height="320" viewBox="0 0 512 320" fill="none" xmlns="http://www.w3.org/2000/svg">
<rect x="0.96225" y="0.084186" width="324.103" height="202.947" transform="matrix(0.984808 -0.173648 0.939693 0.34202 -0.0640019 244.676)" stroke="#333333"/>
<rect x="0.96225" y="0.084186" width="324.103" height="162.561" transform="matrix(0.984808 -0.173648 0.939693 0.34202 18.9111 251.582)" stroke="#333333"/>
<rect x="0.96225" y="0.084186" width="324.103" height="122.176" transform="matrix(0.984808 -0.173648 0.939693 0.34202 37.8859 258.489)" stroke="#333333"/>
<rect x="0.96225" y="0.084186" width="324.103" height="81.7903" transform="matrix(0.984808 -0.173648 0.939693 0.34202 56.861 265.395)" stroke="#333333"/>
<rect x="0.96225" y="0.084186" width="324.103" height="41.4048" transform="matrix(0.984808 -0.173648 0.939693 0.34202 75.8425 272.304)" stroke="#333333"/>
<rect x="0.96225" y="0.084186" width="283.718" height="202.947" transform="matrix(0.984808 -0.173648 0.939693 0.34202 19.822 241.17)" stroke="#333333"/>
<rect x="0.96225" y="0.084186" width="243.332" height="202.947" transform="matrix(0.984808 -0.173648 0.939693 0.34202 39.708 237.663)" stroke="#333333"/>
<rect x="0.96225" y="0.084186" width="202.947" height="202.947" transform="matrix(0.984808 -0.173648 0.939693 0.34202 59.594 234.157)" stroke="#333333"/>
<rect x="0.96225" y="0.084186" width="162.561" height="202.947" transform="matrix(0.984808 -0.173648 0.939693 0.34202 79.4799 230.651)" stroke="#333333"/>
<rect x="0.96225" y="0.084186" width="122.176" height="202.947" transform="matrix(0.984808 -0.173648 0.939693 0.34202 99.3659 227.144)" stroke="#333333"/>
<rect x="0.96225" y="0.084186" width="81.7903" height="202.947" transform="matrix(0.984808 -0.173648 0.939693 0.34202 119.252 223.637)" stroke="#333333"/>
<rect x="0.96225" y="0.084186" width="41.4048" height="202.947" transform="matrix(0.984808 -0.173648 0.939693 0.34202 139.138 220.131)" stroke="#333333"/>
<line y1="-0.5" x2="203.947" y2="-0.5" transform="matrix(0.939693 0.34202 -0.984808 0.173648 159.088 216.402)" stroke="#333333"/>
<line y1="-0.5" x2="325.103" y2="-0.5" transform="matrix(0.984808 -0.173648 0.939693 0.34202 96.7795 279.678)" stroke="#333333"/>
<rect width="143.766" height="126.993" rx="4" transform="matrix(0.984808 -0.173648 0 1 197 41.1326)" fill="#365486"/>
<rect x="0.492404" y="0.413176" width="142.766" height="125.993" rx="3.5" transform="matrix(0.984808 -0.173648 0 1 200.154 37.4685)" fill="white" stroke="#333333"/>
<path d="M200.639 41.2962C200.639 39.3632 202.182 37.5241 204.086 37.1884L337.789 13.6129C339.693 13.2772 341.236 14.5721 341.236 16.5051V43.9531L200.639 68.7442V41.2962Z" fill="#FF605C" stroke="#333333"/>
<rect width="11.9805" height="11.9805" rx="2" transform="matrix(0.984808 -0.173648 0 1 212.731 91.8716)" fill="#D9D9D9"/>
<rect width="11.9805" height="11.9805" rx="2" transform="matrix(0.984808 -0.173648 0 1 230.036 88.8204)" fill="#D9D9D9"/>
<rect width="11.9805" height="11.9805" rx="2" transform="matrix(0.984808 -0.173648 0 1 247.341 85.7693)" fill="#D9D9D9"/>
<rect width="11.9805" height="11.9805" rx="2" transform="matrix(0.984808 -0.173648 0 1 264.645 82.7179)" fill="#D9D9D9"/>
<rect width="11.9805" height="11.9805" rx="2" transform="matrix(0.984808 -0.173648 0 1 281.949 79.6667)" fill="#D9D9D9"/>
<rect width="11.9805" height="11.9805" rx="2" transform="matrix(0.984808 -0.173648 0 1 299.254 76.6154)" fill="#D9D9D9"/>
<rect width="11.9805" height="11.9805" rx="2" transform="matrix(0.984808 -0.173648 0 1 281.949 63.6927)" fill="#D9D9D9"/>
<rect width="11.9805" height="11.9805" rx="2" transform="matrix(0.984808 -0.173648 0 1 299.254 60.6414)" fill="#D9D9D9"/>
<rect width="11.9805" height="11.9805" rx="2" transform="matrix(0.984808 -0.173648 0 1 316.558 57.5903)" fill="#FF605C"/>
<rect width="11.9805" height="11.9805" rx="2" transform="matrix(0.984808 -0.173648 0 1 316.558 73.5643)" fill="#FF605C"/>
<rect width="11.9805" height="11.9805" rx="2" transform="matrix(0.984808 -0.173648 0 1 212.731 107.846)" fill="#D9D9D9"/>
<rect width="11.9805" height="11.9805" rx="2" transform="matrix(0.984808 -0.173648 0 1 230.036 104.794)" fill="#D9D9D9"/>
<rect width="11.9805" height="11.9805" rx="2" transform="matrix(0.984808 -0.173648 0 1 247.341 101.743)" fill="#D9D9D9"/>
<rect width="11.9805" height="11.9805" rx="2" transform="matrix(0.984808 -0.173648 0 1 264.645 98.6921)" fill="#D9D9D9"/>
<rect width="11.9805" height="11.9805" rx="2" transform="matrix(0.984808 -0.173648 0 1 281.949 95.6406)" fill="#D9D9D9"/>
<rect width="11.9805" height="11.9805" rx="2" transform="matrix(0.984808 -0.173648 0 1 299.254 92.5894)" fill="#D9D9D9"/>
<rect width="11.9805" height="11.9805" rx="2" transform="matrix(0.984808 -0.173648 0 1 316.558 89.5382)" fill="#FF605C"/>
<rect width="11.9805" height="11.9805" rx="2" transform="matrix(0.984808 -0.173648 0 1 212.731 123.82)" fill="#D9D9D9"/>
<rect width="11.9805" height="11.9805" rx="2" transform="matrix(0.984808 -0.173648 0 1 230.036 120.768)" fill="#D9D9D9"/>
<rect width="11.9805" height="11.9805" rx="2" transform="matrix(0.984808 -0.173648 0 1 247.341 117.717)" fill="#D9D9D9"/>
<rect width="11.9805" height="11.9805" rx="2" transform="matrix(0.984808 -0.173648 0 1 264.645 114.666)" fill="#D9D9D9"/>
<rect width="11.9805" height="11.9805" rx="2" transform="matrix(0.984808 -0.173648 0 1 281.949 111.615)" fill="#D9D9D9"/>
<rect width="11.9805" height="11.9805" rx="2" transform="matrix(0.984808 -0.173648 0 1 299.254 108.563)" fill="#D9D9D9"/>
<rect width="11.9805" height="11.9805" rx="2" transform="matrix(0.984808 -0.173648 0 1 316.558 105.512)" fill="#FF605C"/>
<rect width="11.9805" height="11.9805" rx="2" transform="matrix(0.984808 -0.173648 0 1 212.731 139.794)" fill="#D9D9D9"/>
<rect width="11.9805" height="11.9805" rx="2" transform="matrix(0.984808 -0.173648 0 1 230.036 136.742)" fill="#D9D9D9"/>
<rect width="11.9805" height="11.9805" rx="2" transform="matrix(0.984808 -0.173648 0 1 247.341 133.691)" fill="#D9D9D9"/>
<rect width="11.9805" height="11.9805" rx="2" transform="matrix(0.984808 -0.173648 0 1 264.645 130.64)" fill="#D9D9D9"/>
<rect width="11.9805" height="11.9805" rx="2" transform="matrix(0.984808 -0.173648 0 1 281.949 127.589)" fill="#D9D9D9"/>
<rect width="11.9805" height="11.9805" rx="2" transform="matrix(0.984808 -0.173648 0 1 299.254 124.537)" fill="#D9D9D9"/>
<rect width="11.9805" height="11.9805" rx="2" transform="matrix(0.984808 -0.173648 0 1 264.645 66.744)" fill="#D9D9D9"/>
<rect x="0.492404" y="0.413176" width="10.5713" height="18.2854" rx="1.5" transform="matrix(0.984808 -0.173648 0 1 213.151 28.7585)" fill="#5A6274" stroke="#333333"/>
<rect x="0.492404" y="0.413176" width="10.5713" height="18.2854" rx="1.5" transform="matrix(0.984808 -0.173648 0 1 234.043 25.0747)" fill="#5A6274" stroke="#333333"/>
<rect x="0.492404" y="0.413176" width="10.5713" height="18.2854" rx="1.5" transform="matrix(0.984808 -0.173648 0 1 254.935 21.391)" fill="#5A6274" stroke="#333333"/>
<rect x="0.492404" y="0.413176" width="10.5713" height="18.2854" rx="1.5" transform="matrix(0.984808 -0.173648 0 1 275.826 17.7071)" fill="#5A6274" stroke="#333333"/>
<rect x="0.492404" y="0.413176" width="10.5713" height="18.2854" rx="1.5" transform="matrix(0.984808 -0.173648 0 1 296.718 14.0235)" fill="#5A6274" stroke="#333333"/>
<rect x="0.492404" y="0.413176" width="10.5713" height="18.2854" rx="1.5" transform="matrix(0.984808 -0.173648 0 1 317.61 10.3397)" fill="#5A6274" stroke="#333333"/>
<rect width="116" height="59" rx="16" transform="matrix(0.984808 -0.173648 0 1 63.0002 60.1221)" fill="#365486"/>
<rect x="0.492404" y="0.413176" width="115" height="58" rx="15.5" transform="matrix(0.984808 -0.173648 0 1 66.8879 56.2288)" fill="#94A6B5" stroke="#333333"/>
<path d="M67.3728 75.2564C67.3728 71.8879 67.3732 69.3914 67.5321 67.3875C67.6907 65.3894 68.0044 63.9254 68.6072 62.6179C69.693 60.2626 71.4255 58.1978 73.5565 56.7195C74.7395 55.8988 76.1268 55.3357 78.0669 54.8326C80.0129 54.328 82.4713 53.8941 85.7887 53.3092L162.21 39.8341C165.527 39.2492 167.986 38.8161 169.932 38.6344C171.872 38.4532 173.259 38.5272 174.442 38.9307C176.573 39.6575 178.305 41.1112 179.391 43.0837C179.994 44.1786 180.308 45.532 180.466 47.4741C180.625 49.422 180.626 51.9183 180.626 55.2869V57.5869L67.3728 77.5564V75.2564Z" fill="#F2F2F2" stroke="#333333"/>
<circle cx="5.40384" cy="5.40384" r="5.40384" transform="matrix(0.984808 -0.173648 0 1 92.4248 56.6827)" fill="#FFBD44"/>
<circle cx="5.40384" cy="5.40384" r="5.40384" transform="matrix(0.984808 -0.173648 0 1 107.326 54.0552)" fill="#00CA4E"/>
<circle cx="5.40384" cy="5.40384" r="5.40384" transform="matrix(0.984808 -0.173648 0 1 77.5239 59.3102)" fill="#FF605C"/>
<path d="M142.357 85.6051C142.064 85.9035 141.655 86.0319 141.307 85.9276C140.959 85.8233 140.741 85.5087 140.741 85.1212V75.1212C140.741 74.7337 140.963 74.3415 141.307 74.1151C141.652 73.8887 142.061 73.8697 142.357 74.0676L148.266 78.0257L148.619 78.2633V73.732C148.619 73.1789 149.06 72.6544 149.604 72.5584C150.149 72.4623 150.589 72.8316 150.589 73.3847V83.3847C150.589 83.9379 150.149 84.4623 149.604 84.5584C149.06 84.6544 148.619 84.2852 148.619 83.732V79.2008L148.266 79.5632L142.357 85.6051Z" fill="#333333"/>
<path d="M105.642 92.0789C105.934 92.2742 106.343 92.2583 106.691 92.0313C107.039 91.8044 107.258 91.4127 107.258 91.0252V81.0252C107.258 80.6377 107.036 80.3237 106.691 80.2188C106.347 80.114 105.937 80.2393 105.642 80.5414L99.733 86.5833L99.379 86.9457V82.4144C99.379 81.8613 98.939 81.492 98.3942 81.5881C97.8495 81.6841 97.4094 82.2086 97.4094 82.7617V92.7617C97.4094 93.3148 97.8495 93.6841 98.3942 93.5881C98.939 93.492 99.379 92.9675 99.379 92.4144V87.8832L99.733 88.1208L105.642 92.0789Z" fill="#333333"/>
<path d="M121.001 77.7895C120.61 77.6146 120.12 77.6931 119.721 77.9909C119.323 78.2888 119.075 78.761 119.075 79.227V88.6539C119.075 89.1199 119.323 89.5046 119.721 89.6621C120.12 89.8195 120.61 89.7223 121.001 89.4124L128.596 83.3596C128.973 83.0601 129.203 82.6046 129.203 82.1546C129.203 81.7047 128.973 81.3328 128.596 81.1636L121.001 77.7895Z" fill="#333333"/>
<path fill-rule="evenodd" clip-rule="evenodd" d="M240.994 235.25L248.67 263.897L248.676 263.896V272.896L194.511 282.446V273.546L194.5 273.548L194.511 273.503V273.446L194.526 273.444L201.75 243.77L207.806 266.51L213.223 249.147L217.058 260.087L222.086 237.584L228.522 264.118L231.934 253.848L234.665 261.104L240.994 235.25Z" fill="#365486"/>
<path d="M109.223 133.296C108.839 131.121 110.292 129.046 112.467 128.663L194.398 114.216C196.574 113.832 198.648 115.285 199.032 117.461L217.923 224.6C220.225 237.653 211.509 250.101 198.456 252.403L136.221 263.376C134.045 263.76 131.971 262.307 131.587 260.132L109.223 133.296Z" fill="#365486"/>
<path d="M112.181 129.688C111.845 127.785 113.116 125.969 115.02 125.634L196.951 111.187C198.854 110.851 200.67 112.122 201.005 114.026L219.897 221.165C222.15 233.947 213.616 246.135 200.834 248.389L138.6 259.363C136.696 259.698 134.881 258.427 134.545 256.523L112.181 129.688Z" fill="#D9D9D9" stroke="#333333"/>
<path d="M120.985 135.853C120.649 133.949 121.92 132.134 123.824 131.798L190.786 119.991C192.69 119.655 194.505 120.926 194.841 122.83L201.925 163.006C203.411 171.437 197.782 179.476 189.352 180.962L134.207 190.686C132.304 191.022 130.488 189.751 130.153 187.847L120.985 135.853Z" fill="#ABB2BF" stroke="#333333"/>
<rect x="132.438" y="139.539" width="53.7168" height="41.5575" transform="rotate(-10 132.438 139.539)" fill="#98C379" stroke="#333333"/>
<rect x="136.517" y="196.188" width="23.5586" height="3.03982" transform="rotate(-10 136.517 196.188)" fill="#5A6274"/>
<rect x="145.233" y="206.227" width="7.59955" height="21.2787" rx="2" transform="rotate(-10 145.233 206.227)" fill="#282C34"/>
<rect x="139.685" y="214.15" width="21.2787" height="7.59955" rx="2" transform="rotate(-10 139.685 214.15)" fill="#282C34"/>
<circle cx="186.419" cy="212.816" r="4.55973" fill="#E06C75"/>
<circle cx="198.324" cy="205.354" r="4.55973" transform="rotate(-10 198.324 205.354)" fill="#E06C75"/>
<rect x="166.492" y="234.888" width="9.11946" height="3.03982" rx="1.51991" transform="rotate(-40 166.492 234.888)" fill="#5A6274"/>
<rect x="176.969" y="233.041" width="9.11946" height="3.03982" rx="1.51991" transform="rotate(-40 176.969 233.041)" fill="#5A6274"/>
<mask id="path-76-inside-1_157_1265" fill="white">
<path fill-rule="evenodd" clip-rule="evenodd" d="M244.994 231.25L252.67 259.897L252.676 259.896V268.896L198.511 278.446V269.546L198.5 269.548L198.511 269.503V269.446L198.526 269.444L205.75 239.77L211.806 262.51L217.223 245.147L221.058 256.087L226.086 233.584L232.522 260.118L235.934 249.848L238.665 257.104L244.994 231.25Z"/>
</mask>
<path fill-rule="evenodd" clip-rule="evenodd" d="M244.994 231.25L252.67 259.897L252.676 259.896V268.896L198.511 278.446V269.546L198.5 269.548L198.511 269.503V269.446L198.526 269.444L205.75 239.77L211.806 262.51L217.223 245.147L221.058 256.087L226.086 233.584L232.522 260.118L235.934 249.848L238.665 257.104L244.994 231.25Z" fill="#98C379"/>
<path d="M252.67 259.897L251.704 260.155L251.944 261.049L252.853 260.88L252.67 259.897ZM244.994 231.25L245.96 230.991L244.023 231.012L244.994 231.25ZM252.676 259.896H253.676V258.692L252.492 258.913L252.676 259.896ZM252.676 268.896L252.849 269.88L253.676 269.735V268.896H252.676ZM198.511 278.446H197.511V279.638L198.685 279.431L198.511 278.446ZM198.511 269.546H199.511V268.355L198.338 268.561L198.511 269.546ZM198.5 269.548L197.529 269.312L197.167 270.799L198.674 270.533L198.5 269.548ZM198.511 269.503L199.483 269.739L199.511 269.623V269.503H198.511ZM198.511 269.446L198.338 268.461L197.511 268.607V269.446H198.511ZM198.526 269.444L198.699 270.428L199.343 270.315L199.497 269.68L198.526 269.444ZM205.75 239.77L206.716 239.513L204.778 239.533L205.75 239.77ZM211.806 262.51L210.839 262.768L211.73 266.111L212.76 262.808L211.806 262.51ZM217.223 245.147L218.166 244.816L217.167 241.966L216.268 244.849L217.223 245.147ZM221.058 256.087L220.114 256.418L221.271 259.719L222.034 256.305L221.058 256.087ZM226.086 233.584L227.058 233.348L225.11 233.366L226.086 233.584ZM232.522 260.118L231.55 260.354L232.372 263.742L233.471 260.433L232.522 260.118ZM235.934 249.848L236.87 249.495L235.875 246.853L234.985 249.532L235.934 249.848ZM238.665 257.104L237.729 257.456L238.867 260.482L239.636 257.342L238.665 257.104ZM253.636 259.638L245.96 230.991L244.028 231.509L251.704 260.155L253.636 259.638ZM252.853 260.88L252.859 260.879L252.492 258.913L252.487 258.914L252.853 260.88ZM251.676 259.896V268.896H253.676V259.896H251.676ZM252.502 267.911L198.338 277.461L198.685 279.431L252.849 269.88L252.502 267.911ZM199.511 278.446V269.546H197.511V278.446H199.511ZM198.674 270.533L198.685 270.531L198.338 268.561L198.327 268.563L198.674 270.533ZM197.54 269.266L197.529 269.312L199.472 269.785L199.483 269.739L197.54 269.266ZM199.511 269.503V269.446H197.511V269.503H199.511ZM198.685 270.431L198.699 270.428L198.352 268.459L198.338 268.461L198.685 270.431ZM204.778 239.533L197.554 269.207L199.497 269.68L206.721 240.006L204.778 239.533ZM212.772 262.253L206.716 239.513L204.783 240.027L210.839 262.768L212.772 262.253ZM216.268 244.849L210.851 262.212L212.76 262.808L218.177 245.445L216.268 244.849ZM222.002 255.757L218.166 244.816L216.279 245.478L220.114 256.418L222.002 255.757ZM225.11 233.366L220.082 255.869L222.034 256.305L227.062 233.802L225.11 233.366ZM233.494 259.882L227.058 233.348L225.114 233.82L231.55 260.354L233.494 259.882ZM234.985 249.532L231.573 259.803L233.471 260.433L236.883 250.163L234.985 249.532ZM239.601 256.752L236.87 249.495L234.998 250.2L237.729 257.456L239.601 256.752ZM244.023 231.012L237.693 256.866L239.636 257.342L245.966 231.488L244.023 231.012Z" fill="#333333" mask="url(#path-76-inside-1_157_1265)"/>
<path d="M258.432 150.596C259.017 149.659 260.333 149.206 261.371 149.584L347.782 181.035L307.35 245.739C306.765 246.676 305.449 247.129 304.411 246.751L219.88 215.984C218.842 215.606 218.475 214.541 219.06 213.604L258.432 150.596Z" fill="#365486"/>
<path d="M266.03 148.767C265.591 148.065 265.866 147.725 266.645 148.008L352.586 179.288L383.468 228.709C383.907 229.412 383.631 229.752 382.853 229.468L298.321 198.701C297.543 198.418 296.556 197.619 296.117 196.916L266.03 148.767Z" fill="#5A6274" stroke="#333333"/>
<path d="M263.901 148.767C264.34 148.065 265.327 147.725 266.106 148.008L352.047 179.288L311.881 243.568C311.442 244.27 310.455 244.61 309.676 244.327L225.145 213.56C224.366 213.277 224.091 212.477 224.53 211.775L263.901 148.767Z" fill="#FFBD44" stroke="#333333"/>
<path fill-rule="evenodd" clip-rule="evenodd" d="M407.494 216.15L415.17 244.797L415.176 244.796V253.796L361.011 263.346V254.446L361 254.448L361.011 254.403V254.346L361.026 254.344L368.25 224.67L374.306 247.41L379.723 230.047L383.558 240.987L388.586 218.484L395.022 245.018L398.434 234.748L401.165 242.004L407.494 216.15Z" fill="#365486"/>
<mask id="path-82-inside-2_157_1265" fill="white">
<path fill-rule="evenodd" clip-rule="evenodd" d="M411.494 212.15L419.17 240.797L419.176 240.796V249.796L365.011 259.346V250.446L365 250.448L365.011 250.403V250.346L365.026 250.344L372.25 220.67L378.306 243.41L383.723 226.047L387.558 236.987L392.586 214.484L399.022 241.018L402.434 230.748L405.165 238.004L411.494 212.15Z"/>
</mask>
<path fill-rule="evenodd" clip-rule="evenodd" d="M411.494 212.15L419.17 240.797L419.176 240.796V249.796L365.011 259.346V250.446L365 250.448L365.011 250.403V250.346L365.026 250.344L372.25 220.67L378.306 243.41L383.723 226.047L387.558 236.987L392.586 214.484L399.022 241.018L402.434 230.748L405.165 238.004L411.494 212.15Z" fill="#98C379"/>
<path d="M419.17 240.797L418.204 241.055L418.444 241.949L419.353 241.78L419.17 240.797ZM411.494 212.15L412.46 211.891L410.523 211.912L411.494 212.15ZM419.176 240.796H420.176V239.592L418.992 239.813L419.176 240.796ZM419.176 249.796L419.349 250.78L420.176 250.635V249.796H419.176ZM365.011 259.346H364.011V260.538L365.185 260.331L365.011 259.346ZM365.011 250.446H366.011V249.255L364.838 249.461L365.011 250.446ZM365 250.448L364.029 250.212L363.667 251.699L365.174 251.433L365 250.448ZM365.011 250.403L365.983 250.639L366.011 250.523V250.403H365.011ZM365.011 250.346L364.838 249.361L364.011 249.507V250.346H365.011ZM365.026 250.344L365.199 251.329L365.843 251.215L365.997 250.58L365.026 250.344ZM372.25 220.67L373.216 220.413L371.278 220.433L372.25 220.67ZM378.306 243.41L377.339 243.668L378.23 247.011L379.26 243.708L378.306 243.41ZM383.723 226.047L384.666 225.716L383.667 222.866L382.768 225.749L383.723 226.047ZM387.558 236.987L386.614 237.318L387.771 240.619L388.534 237.206L387.558 236.987ZM392.586 214.484L393.558 214.248L391.61 214.266L392.586 214.484ZM399.022 241.018L398.05 241.254L398.872 244.642L399.971 241.333L399.022 241.018ZM402.434 230.748L403.37 230.395L402.375 227.753L401.485 230.432L402.434 230.748ZM405.165 238.004L404.229 238.356L405.367 241.382L406.136 238.242L405.165 238.004ZM420.136 240.538L412.46 211.891L410.528 212.409L418.204 241.055L420.136 240.538ZM419.353 241.78L419.359 241.779L418.992 239.813L418.987 239.814L419.353 241.78ZM418.176 240.796V249.796H420.176V240.796H418.176ZM419.002 248.811L364.838 258.361L365.185 260.331L419.349 250.78L419.002 248.811ZM366.011 259.346V250.446H364.011V259.346H366.011ZM365.174 251.433L365.185 251.431L364.838 249.461L364.827 249.463L365.174 251.433ZM364.04 250.166L364.029 250.212L365.972 250.685L365.983 250.639L364.04 250.166ZM366.011 250.403V250.346H364.011V250.403H366.011ZM365.185 251.331L365.199 251.329L364.852 249.359L364.838 249.361L365.185 251.331ZM371.278 220.433L364.054 250.107L365.997 250.58L373.221 220.906L371.278 220.433ZM379.272 243.153L373.216 220.413L371.283 220.927L377.339 243.668L379.272 243.153ZM382.768 225.749L377.351 243.112L379.26 243.708L384.677 226.345L382.768 225.749ZM388.502 236.657L384.666 225.716L382.779 226.378L386.614 237.318L388.502 236.657ZM391.61 214.266L386.582 236.769L388.534 237.206L393.562 214.702L391.61 214.266ZM399.994 240.782L393.558 214.248L391.614 214.72L398.05 241.254L399.994 240.782ZM401.485 230.432L398.073 240.703L399.971 241.333L403.383 231.063L401.485 230.432ZM406.101 237.652L403.37 230.395L401.498 231.1L404.229 238.356L406.101 237.652ZM410.523 211.912L404.193 237.766L406.136 238.242L412.466 212.388L410.523 211.912Z" fill="#333333" mask="url(#path-82-inside-2_157_1265)"/>
</svg>
