<svg width="120" height="92" viewBox="0 0 120 92" fill="none" xmlns="http://www.w3.org/2000/svg">
<g opacity="0.96" clip-path="url(#clip0_361_898)">
<path fill-rule="evenodd" clip-rule="evenodd" d="M7.87109 4C5.66195 4 3.87109 5.79086 3.87109 8V20V21V88C3.87109 90.2091 5.66195 92 7.87109 92H116C118.209 92 120 90.2091 120 88V16C120 13.7909 118.209 12 116 12H48.0457L43.7719 5.74374C43.0266 4.65261 41.7904 4 40.469 4H7.87109Z" fill="#365486"/>
<path d="M4 0.5H36.5979C37.7542 0.5 38.8358 1.07103 39.488 2.02577L44.0161 8.65448V13C44.0161 14.933 42.4491 16.5 40.5161 16.5H0.5V4C0.5 2.067 2.067 0.5 4 0.5Z" fill="#FFBD44" stroke="#333333"/>
<path d="M115.629 12V84C115.629 85.933 114.062 87.5 112.129 87.5H3.99999C2.067 87.5 0.5 85.933 0.5 84V16.5H36.4543C38.0293 16.5 39.4896 15.6766 40.3048 14.3289L43.8303 8.5H112.129C114.062 8.5 115.629 10.067 115.629 12Z" fill="#FFE978" stroke="#333333"/>
</g>
<defs>
<clipPath id="clip0_361_898">
<rect width="120" height="92" fill="white"/>
</clipPath>
</defs>
</svg>
