<svg width="512" height="320" viewBox="0 0 512 320" fill="none" xmlns="http://www.w3.org/2000/svg">
<g clip-path="url(#clip0_157_1188)">
<rect x="0.0225576" y="0.257834" width="328.266" height="198.785" transform="matrix(0.984808 0.173648 -0.939693 0.34202 187.979 194.166)" stroke="#333333"/>
<rect x="0.0225576" y="0.257834" width="328.266" height="159.224" transform="matrix(0.984808 0.173648 -0.939693 0.34202 169.392 200.931)" stroke="#333333"/>
<rect x="0.0225576" y="0.257834" width="328.266" height="119.662" transform="matrix(0.984808 0.173648 -0.939693 0.34202 150.804 207.697)" stroke="#333333"/>
<rect x="0.0225576" y="0.257834" width="328.266" height="80.1009" transform="matrix(0.984808 0.173648 -0.939693 0.34202 132.216 214.462)" stroke="#333333"/>
<rect x="0.0225576" y="0.257834" width="328.266" height="40.5395" transform="matrix(0.984808 0.173648 -0.939693 0.34202 113.628 221.227)" stroke="#333333"/>
<rect x="0.0225576" y="0.257834" width="287.363" height="198.785" transform="matrix(0.984808 0.173648 -0.939693 0.34202 208.12 197.717)" stroke="#333333"/>
<rect x="0.0225576" y="0.257834" width="246.46" height="198.785" transform="matrix(0.984808 0.173648 -0.939693 0.34202 228.26 201.268)" stroke="#333333"/>
<rect x="0.0225576" y="0.257834" width="205.558" height="198.785" transform="matrix(0.984808 0.173648 -0.939693 0.34202 248.401 204.82)" stroke="#333333"/>
<rect x="0.0225576" y="0.257834" width="164.655" height="198.785" transform="matrix(0.984808 0.173648 -0.939693 0.34202 268.542 208.371)" stroke="#333333"/>
<rect x="0.0225576" y="0.257834" width="123.753" height="198.785" transform="matrix(0.984808 0.173648 -0.939693 0.34202 288.682 211.922)" stroke="#333333"/>
<rect x="0.0225576" y="0.257834" width="82.8503" height="198.785" transform="matrix(0.984808 0.173648 -0.939693 0.34202 308.823 215.474)" stroke="#333333"/>
<rect x="0.0225576" y="0.257834" width="41.9477" height="198.785" transform="matrix(0.984808 0.173648 -0.939693 0.34202 328.963 219.025)" stroke="#333333"/>
<line y1="-0.5" x2="199.785" y2="-0.5" transform="matrix(-0.939693 0.34202 -0.984808 -0.173648 348.861 222.411)" stroke="#333333"/>
<line y1="-0.5" x2="329.266" y2="-0.5" transform="matrix(0.984808 0.173648 -0.939693 0.34202 92.939 228.504)" stroke="#333333"/>
<rect width="96" height="48" rx="4" transform="matrix(0.984808 0.173648 -0.939693 0.34202 241 233.63)" fill="#365486"/>
<rect x="0.0225576" y="0.257834" width="95" height="47" rx="3.5" transform="matrix(0.984808 0.173648 -0.939693 0.34202 237.936 229.797)" fill="#D9D9D9" stroke="#333333"/>
<rect width="259.384" height="172.923" rx="16" transform="matrix(0.984808 0.173648 0 1 135.882 27.322)" fill="#365486"/>
<rect x="0.492404" y="0.586824" width="258.384" height="171.923" rx="15.5" transform="matrix(0.984808 0.173648 0 1 133.007 24.3545)" fill="#E5E5E5" stroke="#333333"/>
<path d="M133.492 43.7268C133.492 40.3583 133.493 37.862 133.652 35.9141C133.81 33.9719 134.124 32.6185 134.727 31.5236C135.813 29.5512 137.545 28.0974 139.676 27.3706C140.859 26.9671 142.246 26.8932 144.187 27.0743C146.132 27.256 148.591 27.6891 151.908 28.274L369.536 66.6476C372.853 67.2325 375.311 67.6664 377.257 68.171C379.197 68.674 380.585 69.2372 381.768 70.0579C383.899 71.5362 385.631 73.601 386.717 75.9563C387.32 77.2638 387.634 78.7278 387.792 80.7259C387.951 82.7298 387.951 85.2262 387.951 88.5948V220.202L133.492 175.334V43.7268Z" fill="#61AFEF" stroke="#333333"/>
<rect x="0.663414" y="0.55667" width="31" height="31" transform="matrix(0.984808 0.173648 0.34202 0.939693 237.374 214.689)" fill="#D9D9D9" stroke="#333333"/>
<rect width="201.743" height="129.692" rx="16" transform="matrix(0.984808 0.173648 0 1 77.8381 3.38251)" fill="#365486"/>
<rect x="0.492404" y="0.586824" width="200.743" height="128.692" rx="15.5" transform="matrix(0.984808 0.173648 0 1 75.0075 -0.085505)" fill="#282C34" stroke="#333333"/>
<path d="M75.4924 19.2868C75.4924 15.9183 75.4928 13.422 75.6518 11.4741C75.8103 9.53191 76.124 8.17854 76.7268 7.08359C77.8126 5.11118 79.5451 3.6574 81.6761 2.9306C82.8591 2.52714 84.2464 2.45318 86.1866 2.63432C88.1325 2.816 90.5909 3.2491 93.9083 3.83404L254.77 32.1983C258.088 32.7833 260.546 33.2172 262.492 33.7217C264.432 34.2248 265.819 34.788 267.002 35.6086C269.133 37.0869 270.866 39.1517 271.952 41.507C272.555 42.8145 272.868 44.2785 273.027 46.2766C273.186 48.2806 273.186 50.777 273.186 54.1456V56.0609L75.4924 21.2022V19.2868Z" fill="#F2F2F2" stroke="#333333"/>
<circle cx="5.40384" cy="5.40384" r="5.40384" transform="matrix(0.984808 0.173648 0 1 100.544 10)" fill="#FFBD44"/>
<circle cx="5.40384" cy="5.40384" r="5.40384" transform="matrix(0.984808 0.173648 0 1 115.445 12.1752)" fill="#00CA4E"/>
<circle cx="5.40384" cy="5.40384" r="5.40384" transform="matrix(0.984808 0.173648 0 1 85.6433 6.92032)" fill="#FF605C"/>
<rect width="28.8205" height="5.7641" rx="2" transform="matrix(0.984808 0.173648 0 1 102.673 38.0231)" fill="#98C379"/>
<rect width="11.5282" height="5.7641" rx="2" transform="matrix(0.984808 0.173648 0 1 85.6433 35.0203)" fill="#C678DD"/>
<rect width="28.8205" height="5.7641" rx="2" transform="matrix(0.984808 0.173648 0 1 102.673 49.5513)" fill="#98C379"/>
<rect width="11.5282" height="5.7641" rx="2" transform="matrix(0.984808 0.173648 0 1 85.6433 46.5485)" fill="#C678DD"/>
<path d="M165.115 79.8538C165.115 78.7493 165.997 78.0093 167.084 78.2011L168.822 78.5074C169.909 78.6993 170.791 79.7502 170.791 80.8547V82.6188C170.791 83.7234 169.909 84.4634 168.822 84.2715L167.084 83.9652C165.997 83.7734 165.115 82.7225 165.115 81.6179V79.8538Z" fill="#C678DD"/>
<path d="M202.012 120.224C202.012 119.119 202.894 118.379 203.982 118.571L205.719 118.877C206.807 119.069 207.689 120.12 207.689 121.225V122.989C207.689 124.093 206.807 124.833 205.719 124.642L203.982 124.335C202.894 124.143 202.012 123.092 202.012 121.988V120.224Z" fill="#C678DD"/>
<path d="M96.9963 101.707C96.9963 100.602 97.8782 99.8623 98.966 100.054L112.056 102.362C113.144 102.554 114.026 103.605 114.026 104.71V106.474C114.026 107.578 113.144 108.318 112.056 108.126L98.966 105.818C97.8782 105.626 96.9963 104.575 96.9963 103.471V101.707Z" fill="#C678DD"/>
<path d="M85.6433 65.8408C85.6433 64.7363 86.5251 63.9963 87.6129 64.1881L106.38 67.4972C107.468 67.689 108.349 68.74 108.349 69.8445V71.6086C108.349 72.7132 107.468 73.4531 106.38 73.2613L87.6129 69.9522C86.5251 69.7604 85.6433 68.7095 85.6433 67.6049V65.8408Z" fill="#C678DD"/>
<rect width="46.1128" height="5.7641" rx="2" transform="matrix(0.984808 0.173648 0 1 114.026 68.8455)" fill="#ABB2BF"/>
<rect width="25.9384" height="5.7641" rx="2" transform="matrix(0.984808 0.173648 0 1 114.026 80.3737)" fill="#ABB2BF"/>
<rect width="25.9384" height="5.7641" rx="2" transform="matrix(0.984808 0.173648 0 1 114.026 114.238)" fill="#ABB2BF"/>
<rect width="25.9384" height="5.7641" rx="2" transform="matrix(0.984808 0.173648 0 1 145.247 119.743)" fill="#ABB2BF"/>
<rect width="40.3487" height="5.7641" rx="2" transform="matrix(0.984808 0.173648 0 1 121.122 104.681)" fill="#ABB2BF"/>
<rect width="31.7025" height="5.7641" rx="2" transform="matrix(0.984808 0.173648 0 1 165.115 111.718)" fill="#ABB2BF"/>
<rect width="69.1692" height="5.7641" rx="2" transform="matrix(0.984808 0.173648 0 1 114.026 91.9019)" fill="#ABB2BF"/>
<rect width="31.7025" height="5.7641" rx="2" transform="matrix(0.984808 0.173648 0 1 145.247 85.8787)" fill="#ABB2BF"/>
<rect width="11.5282" height="5.7641" rx="2" transform="matrix(0.984808 0.173648 0 1 96.9963 77.3708)" fill="#E06C75"/>
<rect width="11.5282" height="5.7641" rx="2" transform="matrix(0.984808 0.173648 0 1 96.9963 88.899)" fill="#E06C75"/>
<rect width="129.692" height="83.5794" rx="16" transform="matrix(0.984808 0.173648 0 1 311.838 30.3825)" fill="#365486"/>
<rect x="0.492404" y="0.586824" width="128.692" height="82.5794" rx="15.5" transform="matrix(0.984808 0.173648 0 1 309.007 26.9145)" fill="#5A6274" stroke="#333333"/>
<path d="M309.492 46.2868C309.492 42.9183 309.493 40.422 309.652 38.4741C309.81 36.5319 310.124 35.1785 310.727 34.0836C311.813 32.1112 313.545 30.6574 315.676 29.9306C316.859 29.5271 318.246 29.4532 320.187 29.6343C322.132 29.816 324.591 30.2491 327.908 30.834L417.814 46.6868C421.131 47.2717 423.589 47.7056 425.535 48.2102C427.476 48.7132 428.863 49.2764 430.046 50.0971C432.177 51.5754 433.909 53.6401 434.995 55.9954C435.598 57.303 435.912 58.767 436.07 60.765C436.229 62.769 436.23 65.2654 436.23 68.634V70.5494L309.492 48.2022V46.2868Z" fill="#F2F2F2" stroke="#333333"/>
<circle cx="5.40384" cy="5.40384" r="5.40384" transform="matrix(0.984808 0.173648 0 1 334.544 36.5477)" fill="#FFBD44"/>
<circle cx="5.40384" cy="5.40384" r="5.40384" transform="matrix(0.984808 0.173648 0 1 349.445 39.1752)" fill="#00CA4E"/>
<circle cx="5.40384" cy="5.40384" r="5.40384" transform="matrix(0.984808 0.173648 0 1 319.644 33.9203)" fill="#FF605C"/>
<path d="M320.512 60.7589L320.92 59.5888L327.762 63.7473V65.0253L320.92 66.7708L320.512 65.4569L326.131 64.0897L320.512 60.7589ZM328.649 70.8335L337.228 72.3464V73.6064L328.649 72.0935V70.8335Z" fill="white"/>
<rect width="116" height="59" rx="16" transform="matrix(0.984808 0.173648 0 1 296.526 130)" fill="#365486"/>
<rect x="0.492404" y="0.586824" width="115" height="58" rx="15.5" transform="matrix(0.984808 0.173648 0 1 292.533 125.914)" fill="#94A6B5" stroke="#333333"/>
<path d="M293.018 145.287C293.018 141.918 293.019 139.422 293.178 137.474C293.336 135.532 293.65 134.179 294.253 133.084C295.338 131.111 297.071 129.657 299.202 128.931C300.385 128.527 301.772 128.453 303.712 128.634C305.658 128.816 308.117 129.249 311.434 129.834L387.855 143.309C391.173 143.894 393.631 144.328 395.577 144.833C397.517 145.336 398.904 145.899 400.087 146.719C402.218 148.198 403.951 150.262 405.037 152.618C405.64 153.925 405.953 155.389 406.112 157.387C406.271 159.391 406.271 161.888 406.271 165.256V167.556L293.018 147.587V145.287Z" fill="#F2F2F2" stroke="#333333"/>
<circle cx="5.40384" cy="5.40384" r="5.40384" transform="matrix(0.984808 0.173648 0 1 318.07 135.548)" fill="#FFBD44"/>
<circle cx="5.40384" cy="5.40384" r="5.40384" transform="matrix(0.984808 0.173648 0 1 332.971 138.175)" fill="#00CA4E"/>
<circle cx="5.40384" cy="5.40384" r="5.40384" transform="matrix(0.984808 0.173648 0 1 303.169 132.92)" fill="#FF605C"/>
<rect x="0.492404" y="0.586824" width="92.4193" height="20" rx="1.5" transform="matrix(0.984808 0.173648 0 1 303.533 154.914)" fill="#D9D9D9" stroke="#333333"/>
<rect width="9.46018" height="15" rx="2" transform="matrix(0.984808 0.173648 0 1 307.02 158.616)" fill="#98C379"/>
<rect width="9.46018" height="15" rx="2" transform="matrix(0.984808 0.173648 0 1 318.665 160.669)" fill="#98C379"/>
<rect width="9.46018" height="15" rx="2" transform="matrix(0.984808 0.173648 0 1 330.311 162.723)" fill="#98C379"/>
<rect width="9.46018" height="15" rx="2" transform="matrix(0.984808 0.173648 0 1 341.956 164.776)" fill="#98C379"/>
<rect width="9.46018" height="15" rx="2" transform="matrix(0.984808 0.173648 0 1 353.602 166.83)" fill="#98C379"/>
</g>
<defs>
<clipPath id="clip0_157_1188">
<rect width="512" height="320" fill="white"/>
</clipPath>
</defs>
</svg>
