<svg width="96" height="96" viewBox="0 0 96 96" fill="none" xmlns="http://www.w3.org/2000/svg">
<path d="M48 0C51.3188 0 54 2.68125 54 6V7.95C71.5687 10.5563 85.4438 24.45 88.05 42H90C93.3188 42 96 44.6812 96 48C96 51.3188 93.3188 54 90 54H88.05C85.4438 71.5687 71.55 85.4438 54 88.05V90C54 93.3188 51.3188 96 48 96C44.6812 96 42 93.3188 42 90V88.05C24.4313 85.4438 10.5563 71.5687 7.95 54H6C2.68125 54 0 51.3188 0 48C0 44.6812 2.68125 42 6 42H7.95C10.5563 24.4313 24.4313 10.5563 42 7.95V6C42 2.68125 44.6812 0 48 0ZM20.1375 54C22.4813 64.9312 31.0875 73.5188 42 75.8625V72C42 68.6812 44.6812 66 48 66C51.3188 66 54 68.6812 54 72V75.8625C64.9312 73.5188 73.5188 64.9125 75.8625 54H72C68.6812 54 66 51.3188 66 48C66 44.6812 68.6812 42 72 42H75.8625C73.5188 31.0688 64.9312 22.4813 54 20.1375V24C54 27.3188 51.3188 30 48 30C44.6812 30 42 27.3188 42 24V20.1375C31.0688 22.4813 22.4813 31.0688 20.1375 42H24C27.3188 42 30 44.6812 30 48C30 51.3188 27.3188 54 24 54H20.1375ZM48 42C49.5913 42 51.1174 42.6321 52.2426 43.7574C53.3679 44.8826 54 46.4087 54 48C54 49.5913 53.3679 51.1174 52.2426 52.2426C51.1174 53.3679 49.5913 54 48 54C46.4087 54 44.8826 53.3679 43.7574 52.2426C42.6321 51.1174 42 49.5913 42 48C42 46.4087 42.6321 44.8826 43.7574 43.7574C44.8826 42.6321 46.4087 42 48 42Z" fill="white"/>
</svg>
