<svg width="240" height="240" viewBox="0 0 240 240" fill="none" xmlns="http://www.w3.org/2000/svg">
<g clip-path="url(#clip0_350_819)">
<path fill-rule="evenodd" clip-rule="evenodd" d="M157.74 51.2131C162.159 51.2131 165.74 47.6314 165.74 43.2131V18.2928C165.74 13.8746 162.159 10.2928 157.74 10.2928H20.2894C15.8712 10.2928 12.2894 13.8746 12.2894 18.2928V43.2131C12.2894 47.6314 15.8712 51.2131 20.2894 51.2131H27.6631C27.6439 51.629 27.6343 52.0551 27.6343 52.4918C27.6343 69.8184 42.8232 98.8417 64.5465 112.593C42.8233 126.345 27.6343 155.368 27.6343 172.695C27.6343 173.132 27.644 173.558 27.6631 173.974H20.2891C15.8708 173.974 12.2891 177.555 12.2891 181.974V206.894C12.2891 211.312 15.8708 214.894 20.2891 214.894H157.74C162.158 214.894 165.74 211.312 165.74 206.894V181.974C165.74 177.555 162.158 173.974 157.74 173.974H150.366C150.385 173.558 150.395 173.132 150.395 172.695C150.395 155.368 135.206 126.345 113.483 112.593C135.206 98.8417 150.395 69.8184 150.395 52.4918C150.395 52.0551 150.385 51.629 150.366 51.2131H157.74Z" fill="#365486"/>
<mask id="path-3-inside-1_350_819" fill="white">
<path fill-rule="evenodd" clip-rule="evenodd" d="M61.912 27.0901C37.2141 26.112 19.3418 25.4042 19.3418 44.1991C19.3418 61.5256 34.5306 90.5488 56.2537 104.301C34.5307 118.052 19.3419 147.075 19.3419 164.402C19.3419 183.197 37.2141 182.489 61.912 181.511C67.8398 181.276 74.1608 181.026 80.7222 181.026C87.2837 181.026 93.6046 181.276 99.5324 181.511C124.23 182.489 142.103 183.197 142.103 164.402C142.103 147.075 126.914 118.052 105.191 104.301C126.914 90.5487 142.103 61.5256 142.103 44.1991C142.103 25.4042 124.23 26.112 99.5323 27.0901C93.6046 27.3249 87.2836 27.5752 80.7222 27.5752C74.1607 27.5752 67.8398 27.3249 61.912 27.0901Z"/>
</mask>
<path fill-rule="evenodd" clip-rule="evenodd" d="M61.912 27.0901C37.2141 26.112 19.3418 25.4042 19.3418 44.1991C19.3418 61.5256 34.5306 90.5488 56.2537 104.301C34.5307 118.052 19.3419 147.075 19.3419 164.402C19.3419 183.197 37.2141 182.489 61.912 181.511C67.8398 181.276 74.1608 181.026 80.7222 181.026C87.2837 181.026 93.6046 181.276 99.5324 181.511C124.23 182.489 142.103 183.197 142.103 164.402C142.103 147.075 126.914 118.052 105.191 104.301C126.914 90.5487 142.103 61.5256 142.103 44.1991C142.103 25.4042 124.23 26.112 99.5323 27.0901C93.6046 27.3249 87.2836 27.5752 80.7222 27.5752C74.1607 27.5752 67.8398 27.3249 61.912 27.0901Z" fill="white"/>
<path d="M61.912 27.0901L61.8724 28.0894L61.912 27.0901ZM56.2537 104.301L56.7886 105.145L58.1233 104.301L56.7886 103.456L56.2537 104.301ZM61.912 181.511L61.8725 180.512L61.8725 180.512L61.912 181.511ZM99.5324 181.511L99.572 180.512L99.572 180.512L99.5324 181.511ZM105.191 104.301L104.656 103.456L103.321 104.301L104.656 105.145L105.191 104.301ZM99.5323 27.0901L99.5719 28.0894L99.5323 27.0901ZM20.3418 44.1991C20.3418 39.66 21.4185 36.423 23.2993 34.0861C25.1852 31.7429 27.9748 30.1859 31.6271 29.1948C38.9988 27.1945 49.4571 27.5977 61.8724 28.0894L61.9516 26.0909C49.669 25.6045 38.8421 25.1647 31.1033 27.2646C27.2002 28.3237 23.9782 30.0527 21.7412 32.8322C19.4991 35.6181 18.3418 39.3407 18.3418 44.1991H20.3418ZM56.7886 103.456C46.0946 96.6858 36.9687 86.1257 30.5149 75.0857C24.0516 64.0294 20.3418 52.6194 20.3418 44.1991H18.3418C18.3418 53.1054 22.2264 64.8702 28.7883 76.095C35.3597 87.3362 44.6898 98.1635 55.7188 105.145L56.7886 103.456ZM20.3419 164.402C20.3419 155.982 24.0516 144.572 30.515 133.515C36.9687 122.475 46.0946 111.915 56.7886 105.145L55.7188 103.456C44.6898 110.438 35.3597 121.265 28.7883 132.506C22.2265 143.731 18.3419 155.496 18.3419 164.402H20.3419ZM61.8725 180.512C49.4571 181.003 38.9989 181.407 31.6271 179.406C27.9749 178.415 25.1852 176.858 23.2993 174.515C21.4186 172.178 20.3419 168.941 20.3419 164.402H18.3419C18.3419 169.26 19.4991 172.983 21.7413 175.769C23.9782 178.548 27.2003 180.277 31.1033 181.336C38.8422 183.436 49.6691 182.997 61.9516 182.51L61.8725 180.512ZM80.7222 180.026C74.138 180.026 67.7978 180.277 61.8725 180.512L61.9516 182.51C67.8818 182.275 74.1836 182.026 80.7222 182.026V180.026ZM99.572 180.512C93.6466 180.277 87.3065 180.026 80.7222 180.026V182.026C87.2609 182.026 93.5626 182.275 99.4928 182.51L99.572 180.512ZM141.103 164.402C141.103 168.941 140.026 172.178 138.145 174.515C136.259 176.858 133.47 178.415 129.817 179.406C122.446 181.407 111.987 181.003 99.572 180.512L99.4928 182.51C111.775 182.997 122.602 183.436 130.341 181.336C134.244 180.277 137.466 178.548 139.703 175.769C141.945 172.983 143.103 169.26 143.103 164.402H141.103ZM104.656 105.145C115.35 111.915 124.476 122.475 130.929 133.515C137.393 144.572 141.103 155.982 141.103 164.402H143.103C143.103 155.496 139.218 143.731 132.656 132.506C126.085 121.265 116.755 110.438 105.726 103.456L104.656 105.145ZM141.103 44.1991C141.103 52.6194 137.393 64.0293 130.929 75.0856C124.476 86.1256 115.35 96.6857 104.656 103.456L105.726 105.145C116.755 98.1635 126.085 87.3362 132.656 76.095C139.218 64.8702 143.103 53.1054 143.103 44.1991H141.103ZM99.5719 28.0894C111.987 27.5977 122.446 27.1945 129.817 29.1948C133.47 30.1859 136.259 31.7429 138.145 34.0861C140.026 36.423 141.103 39.66 141.103 44.1991H143.103C143.103 39.3407 141.945 35.6181 139.703 32.8322C137.466 30.0527 134.244 28.3237 130.341 27.2646C122.602 25.1647 111.775 25.6045 99.4928 26.0909L99.5719 28.0894ZM80.7222 28.5752C87.3064 28.5752 93.6466 28.324 99.5719 28.0894L99.4928 26.0909C93.5626 26.3258 87.2608 26.5752 80.7222 26.5752V28.5752ZM61.8724 28.0894C67.7978 28.324 74.1379 28.5752 80.7222 28.5752V26.5752C74.1835 26.5752 67.8818 26.3258 61.9516 26.0909L61.8724 28.0894Z" fill="#333333" mask="url(#path-3-inside-1_350_819)"/>
<path d="M47.4749 78.9914C47.4749 72.0025 69.8427 78.9914 80.0832 78.9914C90.3236 78.9914 115.249 72.0025 115.249 78.9914C115.249 85.9803 90.3236 104.3 80.0832 104.3C69.8427 104.3 47.4749 85.9803 47.4749 78.9914Z" fill="#FFE978"/>
<path d="M120.366 161.801C120.366 177.177 102.332 172.768 80.0856 172.768C57.839 172.768 39.8047 177.177 39.8047 161.801C39.8047 146.425 57.839 127.318 80.0856 127.318C102.332 127.318 120.366 146.425 120.366 161.801Z" fill="#FFE978"/>
<rect x="4.50098" y="166.181" width="152.451" height="39.9203" rx="7.5" fill="#FFBD44" stroke="#333333"/>
<rect x="156.951" y="42.4203" width="152.451" height="39.9203" rx="7.5" transform="rotate(-180 156.951 42.4203)" fill="#FFBD44" stroke="#333333"/>
<ellipse cx="184.325" cy="191.062" rx="51.6347" ry="49.2515" fill="#365486"/>
<circle cx="178.275" cy="184.219" r="51.4402" fill="#FF605C" stroke="#333333"/>
<circle cx="178.275" cy="184.219" r="41.5522" fill="white"/>
<circle cx="178.274" cy="184.218" r="31.1641" fill="#FF605C"/>
<circle cx="178.275" cy="184.218" r="20.7761" fill="white"/>
<circle cx="178.276" cy="184.218" r="10.388" fill="#FF605C"/>
<path d="M183.487 184.402L178.58 184.143L180.809 179.764L225.133 154.174L225.346 154.051L225.379 153.807L225.874 150.077L229.264 148.12L230.211 154.126L230.241 154.316L230.391 154.437L235.119 158.261L231.729 160.218L228.251 158.782L228.024 158.688L227.811 158.811L183.487 184.402Z" fill="#94A6B5" stroke="#333333"/>
</g>
<defs>
<clipPath id="clip0_350_819">
<rect width="240" height="240" rx="7" fill="white"/>
</clipPath>
</defs>
</svg>
