<svg width="512" height="320" viewBox="0 0 512 320" fill="none" xmlns="http://www.w3.org/2000/svg">
<rect x="0.0225576" y="0.257834" width="328.266" height="198.785" transform="matrix(0.984808 0.173648 -0.939693 0.34202 187.979 159.716)" stroke="#333333"/>
<rect x="0.0225576" y="0.257834" width="328.266" height="159.224" transform="matrix(0.984808 0.173648 -0.939693 0.34202 169.392 166.481)" stroke="#333333"/>
<rect x="0.0225576" y="0.257834" width="328.266" height="119.662" transform="matrix(0.984808 0.173648 -0.939693 0.34202 150.804 173.247)" stroke="#333333"/>
<rect x="0.0225576" y="0.257834" width="328.266" height="80.1009" transform="matrix(0.984808 0.173648 -0.939693 0.34202 132.216 180.012)" stroke="#333333"/>
<rect x="0.0225576" y="0.257834" width="328.266" height="40.5395" transform="matrix(0.984808 0.173648 -0.939693 0.34202 113.628 186.777)" stroke="#333333"/>
<rect x="0.0225576" y="0.257834" width="287.363" height="198.785" transform="matrix(0.984808 0.173648 -0.939693 0.34202 208.12 163.267)" stroke="#333333"/>
<rect x="0.0225576" y="0.257834" width="246.46" height="198.785" transform="matrix(0.984808 0.173648 -0.939693 0.34202 228.26 166.818)" stroke="#333333"/>
<rect x="0.0225576" y="0.257834" width="205.558" height="198.785" transform="matrix(0.984808 0.173648 -0.939693 0.34202 248.401 170.37)" stroke="#333333"/>
<rect x="0.0225576" y="0.257834" width="164.655" height="198.785" transform="matrix(0.984808 0.173648 -0.939693 0.34202 268.542 173.921)" stroke="#333333"/>
<rect x="0.0225576" y="0.257834" width="123.753" height="198.785" transform="matrix(0.984808 0.173648 -0.939693 0.34202 288.682 177.472)" stroke="#333333"/>
<rect x="0.0225576" y="0.257834" width="82.8503" height="198.785" transform="matrix(0.984808 0.173648 -0.939693 0.34202 308.823 181.024)" stroke="#333333"/>
<rect x="0.0225576" y="0.257834" width="41.9477" height="198.785" transform="matrix(0.984808 0.173648 -0.939693 0.34202 328.963 184.575)" stroke="#333333"/>
<line y1="-0.5" x2="199.785" y2="-0.5" transform="matrix(-0.939693 0.34202 -0.984808 -0.173648 348.861 187.961)" stroke="#333333"/>
<line y1="-0.5" x2="329.266" y2="-0.5" transform="matrix(0.984808 0.173648 -0.939693 0.34202 92.939 194.054)" stroke="#333333"/>
<circle cx="8" cy="8" r="8" transform="matrix(0.984808 0.173648 0 1 172.362 66.8433)" fill="#365486"/>
<rect width="90" height="120" rx="8" transform="matrix(0.984808 0.173648 0 1 134.939 76.2446)" fill="#365486"/>
<rect x="0.492404" y="0.586824" width="89" height="119" rx="7.5" transform="matrix(0.984808 0.173648 0 1 131.007 71.4645)" fill="#FFBD44" stroke="#333333"/>
<circle cx="8" cy="8" r="7.5" transform="matrix(0.984808 0.173648 0 1 168.423 62.1487)" fill="#D9D9D9" stroke="#333333"/>
<rect x="0.492404" y="0.586824" width="73" height="98" rx="1.5" transform="matrix(0.984808 0.173648 0 1 139.871 78.0274)" fill="white" stroke="#333333"/>
<rect x="0.492404" y="0.586824" width="42" height="13" transform="matrix(0.984808 0.173648 0 1 154.643 72.6321)" fill="#D9D9D9" stroke="#333333"/>
<path d="M160.544 104.76C160.544 103.655 161.426 102.915 162.514 103.107L181.225 106.406C182.313 106.598 183.195 107.649 183.195 108.753C183.195 109.858 182.313 110.598 181.225 110.406L162.514 107.107C161.426 106.915 160.544 105.864 160.544 104.76Z" fill="#5A6274"/>
<path d="M149.711 94.8494C149.711 93.7448 150.593 93.0049 151.681 93.1967L170.392 96.496C171.48 96.6878 172.362 97.7387 172.362 98.8433C172.362 99.9478 171.48 100.688 170.392 100.496L151.681 97.1967C150.593 97.0049 149.711 95.9539 149.711 94.8494Z" fill="#282C34"/>
<rect width="8" height="4" rx="2" transform="matrix(0.984808 0.173648 0 1 149.711 100.849)" fill="#ABB2BF"/>
<rect width="31" height="4" rx="2" transform="matrix(0.984808 0.173648 0 1 160.544 108.76)" fill="#5A6274"/>
<rect width="15" height="4" rx="2" transform="matrix(0.984808 0.173648 0 1 160.544 114.76)" fill="#5A6274"/>
<rect width="8" height="4" rx="2" transform="matrix(0.984808 0.173648 0 1 149.711 106.849)" fill="#ABB2BF"/>
<rect width="23" height="4" rx="2" transform="matrix(0.984808 0.173648 0 1 160.544 120.76)" fill="#5A6274"/>
<rect width="8" height="4" rx="2" transform="matrix(0.984808 0.173648 0 1 149.711 118.849)" fill="#ABB2BF"/>
<rect width="50" height="72" rx="4" transform="matrix(0.984808 0.173648 -0.939693 0.34202 332.597 225.613)" fill="#365486"/>
<rect x="0.0225576" y="0.257834" width="49" height="71" rx="3.5" transform="matrix(0.984808 0.173648 -0.939693 0.34202 332.659 223.716)" fill="#94A6B5" stroke="#333333"/>
<rect x="0.0225576" y="0.257834" width="35" height="22" rx="1.5" transform="matrix(0.984808 0.173648 -0.939693 0.34202 332.975 227.325)" fill="#98C379" stroke="#333333"/>
<rect width="8" height="5" rx="2" transform="matrix(0.984808 0.173648 -0.939693 0.34202 307.361 236.394)" fill="#282C34"/>
<rect width="8" height="5" rx="2" transform="matrix(0.984808 0.173648 -0.939693 0.34202 317.209 238.131)" fill="#282C34"/>
<rect width="8" height="5" rx="2" transform="matrix(0.984808 0.173648 -0.939693 0.34202 327.057 239.867)" fill="#282C34"/>
<rect width="6" height="12" rx="2" transform="matrix(0.984808 0.173648 -0.939693 0.34202 336.905 241.604)" fill="#FFBD44"/>
<rect width="6" height="12" rx="2" transform="matrix(0.984808 0.173648 -0.939693 0.34202 323.749 246.392)" fill="#FFBD44"/>
<rect width="8" height="5" rx="2" transform="matrix(0.984808 0.173648 -0.939693 0.34202 300.783 238.788)" fill="#282C34"/>
<rect width="8" height="5" rx="2" transform="matrix(0.984808 0.173648 -0.939693 0.34202 310.631 240.525)" fill="#282C34"/>
<rect width="8" height="5" rx="2" transform="matrix(0.984808 0.173648 -0.939693 0.34202 320.479 242.261)" fill="#282C34"/>
<rect width="8" height="5" rx="2" transform="matrix(0.984808 0.173648 -0.939693 0.34202 294.205 241.182)" fill="#282C34"/>
<rect width="8" height="5" rx="2" transform="matrix(0.984808 0.173648 -0.939693 0.34202 304.053 242.919)" fill="#282C34"/>
<rect width="8" height="5" rx="2" transform="matrix(0.984808 0.173648 -0.939693 0.34202 313.901 244.656)" fill="#282C34"/>
<rect width="8" height="5" rx="2" transform="matrix(0.984808 0.173648 -0.939693 0.34202 287.627 243.577)" fill="#282C34"/>
<rect width="8" height="5" rx="2" transform="matrix(0.984808 0.173648 -0.939693 0.34202 297.475 245.313)" fill="#282C34"/>
<rect width="8" height="5" rx="2" transform="matrix(0.984808 0.173648 -0.939693 0.34202 307.323 247.05)" fill="#282C34"/>
<rect width="201.743" height="149.69" rx="16" transform="matrix(0.984808 0.173648 0 1 229.838 37.3826)" fill="#365486"/>
<rect x="0.492404" y="0.586824" width="200.743" height="148.69" rx="15.5" transform="matrix(0.984808 0.173648 0 1 227.007 33.9145)" fill="#5A6274" stroke="#333333"/>
<path d="M227.492 53.2868C227.492 49.9183 227.493 47.422 227.652 45.4741C227.81 43.5319 228.124 42.1785 228.727 41.0836C229.813 39.1112 231.545 37.6574 233.676 36.9306C234.859 36.5271 236.246 36.4532 238.187 36.6343C240.132 36.816 242.591 37.2491 245.908 37.834L406.77 66.1983C410.088 66.7833 412.546 67.2172 414.492 67.7217C416.432 68.2248 417.819 68.788 419.002 69.6086C421.133 71.0869 422.866 73.1517 423.952 75.507C424.555 76.8145 424.868 78.2785 425.027 80.2766C425.186 82.2806 425.186 84.777 425.186 88.1456V90.0609L227.492 55.2022V53.2868Z" fill="#F2F2F2" stroke="#333333"/>
<circle cx="5.40384" cy="5.40384" r="4.90384" transform="matrix(0.984808 0.173648 0 1 252.544 44)" fill="#FFBD44" stroke="#F2F2F2"/>
<circle cx="5.40384" cy="5.40384" r="4.90384" transform="matrix(0.984808 0.173648 0 1 267.445 46.1752)" fill="#00CA4E" stroke="#F2F2F2"/>
<circle cx="5.40384" cy="5.40384" r="4.90384" transform="matrix(0.984808 0.173648 0 1 237.643 40.9203)" fill="#FF605C" stroke="#F2F2F2"/>
<circle cx="8" cy="8" r="6.5" transform="matrix(0.984808 0.173648 0 1 253.59 111.688)" stroke="#F2F2F2" stroke-width="3"/>
<circle cx="8" cy="8" r="6.5" transform="matrix(0.984808 0.173648 0 1 285.104 98.2451)" stroke="#F2F2F2" stroke-width="3"/>
<circle cx="8" cy="8" r="6.5" transform="matrix(0.984808 0.173648 0 1 375.6 137.436)" stroke="#F2F2F2" stroke-width="3"/>
<circle cx="8" cy="8" r="6.5" transform="matrix(0.984808 0.173648 0 1 358.858 106.484)" stroke="#F2F2F2" stroke-width="3"/>
<circle cx="8" cy="8" r="6.5" transform="matrix(0.984808 0.173648 0 1 350.979 162.095)" stroke="#F2F2F2" stroke-width="3"/>
<circle cx="8" cy="8" r="6.5" transform="matrix(0.984808 0.173648 0 1 318.587 118.149)" stroke="#F2F2F2" stroke-width="3"/>
<circle cx="8" cy="8" r="6.5" transform="matrix(0.984808 0.173648 0 1 292.982 147.635)" stroke="#F2F2F2" stroke-width="3"/>
<path d="M266.885 118.533L287.073 109.593" stroke="white"/>
<path d="M266.885 118.533L287.073 109.593" stroke="#F2F2F2"/>
<path d="M294.459 114.395L299.383 150.263" stroke="#F2F2F2"/>
<path d="M299.876 109.85L321.049 123.083" stroke="#F2F2F2"/>
<path d="M359.35 165.071L365.752 122.2" stroke="#F2F2F2"/>
<path d="M379.539 152.131L363.126 167.61" stroke="#F2F2F2"/>
<path fill-rule="evenodd" clip-rule="evenodd" d="M263.827 206.818C266.266 204.609 267.76 201.322 267.76 197.418C267.76 189.271 261.256 181.519 253.232 180.105C245.209 178.69 238.705 184.147 238.705 192.295C238.705 197.529 241.39 202.6 245.438 205.932C238.639 207.478 234.117 211.554 234.117 217.107C234.117 225.683 244.9 234.536 258.202 236.882C258.587 236.949 258.969 237.011 259.349 237.067V237.084L270.053 238.971C280.188 240.758 288.404 235.255 288.404 226.679C288.404 218.103 280.188 209.702 270.053 207.915C270.04 207.913 270.026 207.911 270.012 207.908L263.827 206.818Z" fill="#365486"/>
<rect width="17.8572" height="7.76401" rx="3.88201" transform="matrix(0.984808 0.173648 0 1 231.058 190.946)" fill="#365486"/>
<mask id="path-67-inside-1_157_1380" fill="white">
<path fill-rule="evenodd" clip-rule="evenodd" d="M260.768 203.173C263.207 200.964 264.701 197.677 264.701 193.773C264.701 185.626 258.197 177.875 250.174 176.46C242.15 175.045 235.646 180.503 235.646 188.65C235.646 193.885 238.331 198.956 242.379 202.288C235.58 203.834 231.058 207.909 231.058 213.462C231.058 222.038 241.842 230.892 255.143 233.237C255.528 233.305 255.91 233.367 256.29 233.422V233.439L266.907 235.311C266.936 235.316 266.965 235.322 266.995 235.327C277.13 237.114 285.345 231.61 285.345 223.034C285.345 214.459 277.13 206.058 266.995 204.271L266.995 204.271L260.768 203.173Z"/>
</mask>
<path fill-rule="evenodd" clip-rule="evenodd" d="M260.768 203.173C263.207 200.964 264.701 197.677 264.701 193.773C264.701 185.626 258.197 177.875 250.174 176.46C242.15 175.045 235.646 180.503 235.646 188.65C235.646 193.885 238.331 198.956 242.379 202.288C235.58 203.834 231.058 207.909 231.058 213.462C231.058 222.038 241.842 230.892 255.143 233.237C255.528 233.305 255.91 233.367 256.29 233.422V233.439L266.907 235.311C266.936 235.316 266.965 235.322 266.995 235.327C277.13 237.114 285.345 231.61 285.345 223.034C285.345 214.459 277.13 206.058 266.995 204.271L266.995 204.271L260.768 203.173Z" fill="#FFBD44"/>
<path d="M260.768 203.173L260.05 202.362L258.494 203.772L260.768 204.173V203.173ZM242.379 202.288L242.743 203.281L244.532 202.875L242.908 201.538L242.379 202.288ZM256.29 233.422L257.275 233.596V232.566L256.261 232.417L256.29 233.422ZM256.29 233.439L255.306 233.265V234.265L256.29 234.439V233.439ZM266.907 235.311L266.91 234.312L266.907 234.311V235.311ZM266.995 204.271L266.016 203.99L265.897 205.077L266.995 205.271V204.271ZM266.995 204.271L267.974 204.551L268.093 203.464L266.995 203.271V204.271ZM263.716 193.599C263.716 197.24 262.325 200.302 260.05 202.362L261.487 203.984C264.09 201.626 265.686 198.115 265.686 193.947L263.716 193.599ZM250.174 177.46C257.653 178.779 263.716 186.005 263.716 193.599L265.686 193.947C265.686 185.247 258.741 176.971 250.174 175.46V177.46ZM236.631 188.824C236.631 181.229 242.694 176.141 250.174 177.46V175.46C241.606 173.949 234.661 179.777 234.661 188.476L236.631 188.824ZM242.908 201.538C239.132 198.43 236.631 193.702 236.631 188.824L234.661 188.476C234.661 194.067 237.53 199.482 241.85 203.038L242.908 201.538ZM232.043 213.636C232.043 208.684 236.106 204.79 242.743 203.281L242.015 201.295C235.054 202.877 230.074 207.134 230.074 213.289L232.043 213.636ZM255.143 232.237C248.65 231.092 242.818 228.365 238.641 224.935C234.451 221.495 232.043 217.462 232.043 213.636L230.074 213.289C230.074 218.038 233.058 222.72 237.585 226.437C242.124 230.164 248.335 233.037 255.143 234.237V232.237ZM256.261 232.417C255.891 232.363 255.518 232.303 255.143 232.237V234.237C255.538 234.307 255.93 234.37 256.32 234.427L256.261 232.417ZM257.275 233.613V233.596L255.306 233.249V233.265L257.275 233.613ZM266.907 234.311L256.29 232.439V234.439L266.907 236.311V234.311ZM266.995 234.327C266.967 234.322 266.939 234.317 266.91 234.312L266.903 236.31C266.933 236.316 266.964 236.321 266.995 236.327V234.327ZM284.361 222.861C284.361 230.721 276.761 236.049 266.995 234.327V236.327C277.498 238.179 286.33 232.499 286.33 223.208L284.361 222.861ZM266.995 205.271C276.761 206.993 284.361 215 284.361 222.861L286.33 223.208C286.33 213.917 277.498 205.123 266.995 203.271V205.271ZM266.016 203.99L266.016 203.99L267.974 204.551L267.974 204.551L266.016 203.99ZM260.768 204.173L266.995 205.271V203.271L260.768 202.173V204.173Z" fill="#333333" mask="url(#path-67-inside-1_157_1380)"/>
<rect x="0.492404" y="0.586824" width="16.8572" height="6.76401" rx="3.38201" transform="matrix(0.984808 0.173648 0 1 228.007 187.216)" fill="#FF975C" stroke="#333333"/>
<rect width="64" height="40" rx="4" transform="matrix(0.984808 0.173648 -0.939693 0.34202 154.527 211.613)" fill="#365486"/>
<rect x="0.0225576" y="0.257834" width="63" height="39" rx="3.5" transform="matrix(0.984808 0.173648 -0.939693 0.34202 154.589 209.716)" fill="white" stroke="#333333"/>
<path d="M151.08 211.005C152.896 210.344 155.912 210.08 157.816 210.416L212.965 220.14C214.869 220.476 214.939 221.284 213.123 221.945L206.075 224.51L144.032 213.57L151.08 211.005Z" fill="#FF975C" stroke="#333333"/>
<path d="M138.733 219.49C139.252 219.301 140.113 219.225 140.657 219.321L150.505 221.058C151.049 221.154 151.069 221.385 150.55 221.574C150.031 221.762 149.17 221.838 148.626 221.742L143.702 220.874L138.778 220.005C138.234 219.909 138.214 219.679 138.733 219.49Z" fill="#ABB2BF"/>
<path d="M135.914 220.516C136.433 220.327 137.294 220.252 137.838 220.347L144.732 221.563C145.276 221.659 145.296 221.89 144.777 222.079C144.258 222.268 143.396 222.343 142.852 222.247L139.406 221.639L135.959 221.032C135.415 220.936 135.395 220.705 135.914 220.516Z" fill="#ABB2BF"/>
<path d="M133.094 221.542C133.613 221.353 134.475 221.278 135.019 221.373L149.791 223.978C150.335 224.074 150.355 224.305 149.836 224.494C149.317 224.683 148.456 224.758 147.912 224.662L140.526 223.36L133.14 222.058C132.596 221.962 132.576 221.731 133.094 221.542Z" fill="#ABB2BF"/>
<rect width="14" height="16" rx="2" transform="matrix(0.984808 0.173648 -0.939693 0.34202 180.673 222.316)" fill="#ABB2BF"/>
</svg>
