<svg width="240" height="240" viewBox="0 0 240 240" fill="none" xmlns="http://www.w3.org/2000/svg">
<circle cx="94.4528" cy="89.4537" r="80.071" fill="#365486"/>
<circle cx="89.071" cy="84.071" r="79.571" fill="#61AFEF" stroke="#333333"/>
<mask id="path-4-inside-1_350_847" fill="white">
<path fill-rule="evenodd" clip-rule="evenodd" d="M62.4795 8.5208C65.2584 30.7985 77.8935 82.028 102.577 65.1586C135.292 42.8007 171.28 88.6532 162.68 115.077C162.812 114.959 162.944 114.832 163.075 114.695C166.984 105.261 169.14 94.918 169.14 84.071C169.14 39.849 133.291 4 89.0695 4C79.7484 4 70.7993 5.5927 62.4795 8.5208Z"/>
</mask>
<path fill-rule="evenodd" clip-rule="evenodd" d="M62.4795 8.5208C65.2584 30.7985 77.8935 82.028 102.577 65.1586C135.292 42.8007 171.28 88.6532 162.68 115.077C162.812 114.959 162.944 114.832 163.075 114.695C166.984 105.261 169.14 94.918 169.14 84.071C169.14 39.849 133.291 4 89.0695 4C79.7484 4 70.7993 5.5927 62.4795 8.5208Z" fill="#98C379"/>
<path d="M62.4795 8.5208L62.1475 7.57752L61.3874 7.84502L61.4872 8.64458L62.4795 8.5208ZM102.577 65.1586L102.013 64.3329L102.577 65.1586ZM162.68 115.077L161.729 114.767L160.588 118.274L163.345 115.824L162.68 115.077ZM163.075 114.695L163.797 115.388L163.927 115.252L163.999 115.078L163.075 114.695ZM61.4872 8.64458C62.883 19.8344 66.755 38.3345 73.4156 51.9591C76.7374 58.754 80.8251 64.4893 85.7803 67.4193C88.2796 68.8972 91.0059 69.6643 93.9439 69.4801C96.875 69.2963 99.9425 68.1704 103.141 65.9842L102.013 64.3329C99.0409 66.3641 96.314 67.3275 93.8187 67.484C91.3302 67.64 88.998 66.9985 86.7982 65.6977C82.3552 63.0706 78.4822 57.7692 75.2124 51.0807C68.6899 37.7385 64.8549 19.4849 63.4718 8.39702L61.4872 8.64458ZM103.141 65.9842C111.097 60.5468 119.207 59.2761 126.783 60.7908C134.385 62.3108 141.513 66.6503 147.415 72.5329C153.316 78.4138 157.948 85.795 160.573 93.315C163.202 100.844 163.792 108.431 161.729 114.767L163.631 115.386C165.869 108.511 165.185 100.457 162.462 92.6559C159.735 84.8457 154.938 77.2067 148.827 71.1163C142.718 65.0276 135.253 60.4446 127.175 58.8296C119.071 57.2095 110.414 58.5914 102.013 64.3329L103.141 65.9842ZM163.345 115.824C163.498 115.688 163.649 115.542 163.797 115.388L162.354 114.003C162.239 114.122 162.127 114.231 162.016 114.329L163.345 115.824ZM168.14 84.071C168.14 94.7844 166.01 104.998 162.152 114.313L163.999 115.078C167.957 105.525 170.14 95.0516 170.14 84.071H168.14ZM89.0695 5C132.739 5 168.14 40.4013 168.14 84.071H170.14C170.14 39.2967 133.844 3 89.0695 3V5ZM62.8115 9.46409C71.0261 6.57301 79.863 5 89.0695 5V3C79.6338 3 70.5725 4.6124 62.1475 7.57752L62.8115 9.46409Z" fill="#333333" mask="url(#path-4-inside-1_350_847)"/>
<mask id="path-6-inside-2_350_847" fill="white">
<path fill-rule="evenodd" clip-rule="evenodd" d="M43.9261 150.211C22.8387 135.79 9 111.547 9 84.0711C9 75.891 10.2266 67.9974 12.506 60.5642C19.2518 61.4765 19.1942 66.406 19.1126 73.3974C18.9845 84.3689 18.7971 100.418 44.749 113.991C55.5721 119.651 51.0637 129.72 47.1808 138.393C45.1064 143.026 43.2105 147.261 43.9261 150.211Z"/>
</mask>
<path fill-rule="evenodd" clip-rule="evenodd" d="M43.9261 150.211C22.8387 135.79 9 111.547 9 84.0711C9 75.891 10.2266 67.9974 12.506 60.5642C19.2518 61.4765 19.1942 66.406 19.1126 73.3974C18.9845 84.3689 18.7971 100.418 44.749 113.991C55.5721 119.651 51.0637 129.72 47.1808 138.393C45.1064 143.026 43.2105 147.261 43.9261 150.211Z" fill="#98C379"/>
<path d="M43.9261 150.211L43.3616 151.037L45.5118 152.507L44.8979 149.976L43.9261 150.211ZM12.506 60.5642L12.64 59.5732L11.7988 59.4595L11.55 60.271L12.506 60.5642ZM19.1126 73.3974L20.1125 73.4091L20.1125 73.4091L19.1126 73.3974ZM44.749 113.991L44.2856 114.877L44.2856 114.877L44.749 113.991ZM47.1808 138.393L48.0935 138.802L47.1808 138.393ZM44.4906 149.386C23.664 135.143 10 111.203 10 84.0711H8C8 111.891 22.0133 136.437 43.3616 151.037L44.4906 149.386ZM10 84.0711C10 75.9915 11.2115 68.1966 13.4621 60.8574L11.55 60.271C9.24177 67.7982 8 75.7905 8 84.0711H10ZM12.372 61.5552C13.9429 61.7676 15.0298 62.2023 15.7994 62.7739C16.5594 63.3384 17.0771 64.0862 17.4313 65.0471C18.1716 67.0549 18.1543 69.8183 18.1127 73.3858L20.1125 73.4091C20.1525 69.9851 20.2048 66.7881 19.3079 64.3552C18.8435 63.0958 18.1158 62.0032 16.9919 61.1683C15.8776 60.3406 14.442 59.8169 12.64 59.5732L12.372 61.5552ZM18.1127 73.3858C18.0487 78.8645 17.9572 85.8251 21.2386 93.1286C24.5314 100.458 31.1583 108.012 44.2856 114.877L45.2124 113.105C32.3878 106.398 26.1324 99.1407 23.063 92.309C19.9821 85.4518 20.0484 78.9018 20.1125 73.4091L18.1127 73.3858ZM44.2856 114.877C46.8551 116.221 48.4409 117.786 49.3662 119.456C50.2921 121.128 50.6027 122.989 50.4815 125.002C50.2351 129.092 48.2313 133.6 46.2681 137.984L48.0935 138.802C50.0132 134.514 52.2051 129.65 52.4778 125.122C52.6162 122.826 52.2672 120.567 51.1158 118.487C49.9638 116.407 48.0544 114.591 45.2124 113.105L44.2856 114.877ZM46.2681 137.984C45.2373 140.287 44.2192 142.558 43.555 144.628C42.8974 146.677 42.5292 148.694 42.9542 150.447L44.8979 149.976C44.6074 148.778 44.8293 147.202 45.4594 145.239C46.0829 143.295 47.0499 141.133 48.0935 138.802L46.2681 137.984Z" fill="#333333" mask="url(#path-6-inside-2_350_847)"/>
<mask id="path-8-inside-3_350_847" fill="white">
<path fill-rule="evenodd" clip-rule="evenodd" d="M150.404 135.547C135.716 153.03 113.69 164.142 89.0692 164.142C83.1033 164.142 77.2899 163.49 71.6963 162.252C76.5747 152.849 86.9336 143.197 93.5109 143.197C113.85 143.197 122.113 137.663 127.972 133.738C133.39 130.108 136.753 127.856 145.71 132.633C147.397 133.533 148.965 134.515 150.404 135.547Z"/>
</mask>
<path fill-rule="evenodd" clip-rule="evenodd" d="M150.404 135.547C135.716 153.03 113.69 164.142 89.0692 164.142C83.1033 164.142 77.2899 163.49 71.6963 162.252C76.5747 152.849 86.9336 143.197 93.5109 143.197C113.85 143.197 122.113 137.663 127.972 133.738C133.39 130.108 136.753 127.856 145.71 132.633C147.397 133.533 148.965 134.515 150.404 135.547Z" fill="#98C379"/>
<path d="M150.404 135.547L151.169 136.19L151.864 135.363L150.986 134.734L150.404 135.547ZM71.6963 162.252L70.8086 161.792L70.2091 162.948L71.4803 163.229L71.6963 162.252ZM93.5109 143.197L93.5109 142.197H93.5109V143.197ZM127.972 133.738L128.528 134.569L128.528 134.569L127.972 133.738ZM145.71 132.633L145.239 133.516L145.239 133.516L145.71 132.633ZM149.638 134.904C135.132 152.17 113.382 163.142 89.0692 163.142V165.142C113.998 165.142 136.299 153.89 151.169 136.19L149.638 134.904ZM89.0692 163.142C83.1765 163.142 77.4354 162.498 71.9123 161.276L71.4803 163.229C77.1444 164.482 83.0302 165.142 89.0692 165.142V163.142ZM72.584 162.713C74.9621 158.129 78.6927 153.46 82.6323 149.945C84.6001 148.189 86.5991 146.74 88.4841 145.735C90.3813 144.723 92.0948 144.197 93.5109 144.197V142.197C91.6384 142.197 89.5905 142.878 87.5431 143.97C85.4835 145.068 83.3547 146.62 81.3008 148.452C77.197 152.114 73.3089 156.972 70.8086 161.792L72.584 162.713ZM93.5109 144.197C103.773 144.197 111.038 142.801 116.502 140.883C121.97 138.964 125.589 136.538 128.528 134.569L127.415 132.907C124.496 134.863 121.053 137.166 115.84 138.996C110.624 140.827 103.588 142.197 93.5109 142.197L93.5109 144.197ZM128.528 134.569C131.281 132.725 133.29 131.399 135.671 131.021C138.003 130.65 140.853 131.176 145.239 133.516L146.18 131.751C141.609 129.313 138.299 128.577 135.357 129.046C132.462 129.506 130.081 131.121 127.415 132.907L128.528 134.569ZM145.239 133.516C146.887 134.395 148.417 135.353 149.821 136.359L150.986 134.734C149.512 133.677 147.907 132.672 146.18 131.751L145.239 133.516Z" fill="#333333" mask="url(#path-8-inside-3_350_847)"/>
<path fill-rule="evenodd" clip-rule="evenodd" d="M178.472 125.503C177.367 125.503 176.472 126.399 176.472 127.503V135.102C176.472 136.207 177.367 137.102 178.472 137.102H179.634V149.755H163.709C162.604 149.755 161.709 150.651 161.709 151.755V230.905C161.709 232.009 162.604 232.905 163.709 232.905H171.2V234.309C171.2 235.413 172.095 236.309 173.2 236.309H179.593C180.698 236.309 181.593 235.413 181.593 234.309V232.905H211.268V234.309C211.268 235.413 212.163 236.309 213.268 236.309H219.661C220.766 236.309 221.661 235.413 221.661 234.309V232.905H229C230.105 232.905 231 232.009 231 230.905V151.755C231 150.651 230.105 149.755 229 149.755H214.431V137.102H214.54C215.645 137.102 216.54 136.207 216.54 135.102V127.503C216.54 126.399 215.645 125.503 214.54 125.503H178.472ZM204.941 137.102H204.322C203.218 137.102 202.322 136.207 202.322 135.102V134.884C202.322 133.78 201.427 132.884 200.322 132.884H192.689C191.585 132.884 190.689 133.78 190.689 134.884V135.102C190.689 136.207 189.794 137.102 188.689 137.102H188.07V149.755H204.941V137.102Z" fill="#365486"/>
<rect x="200.619" y="127.508" width="8.48987" height="20.0886" fill="white" stroke="#333333"/>
<rect x="175.312" y="127.508" width="7.43544" height="20.0886" fill="white" stroke="#333333"/>
<rect x="157.387" y="145.433" width="68.2911" height="82.1494" rx="1.5" fill="#FFBD44" stroke="#333333"/>
<path d="M206.444 228.022H216.838V229.487C216.838 230.591 215.943 231.487 214.838 231.487H208.444C207.34 231.487 206.444 230.591 206.444 229.487V228.022Z" fill="black"/>
<path d="M166.376 228.022H176.77V229.487C176.77 230.591 175.874 231.487 174.77 231.487H168.376C167.271 231.487 166.376 230.591 166.376 229.487V228.022Z" fill="black"/>
<path d="M173.649 121.181H209.718C210.546 121.181 211.218 121.853 211.218 122.681V130.28C211.218 131.108 210.546 131.78 209.718 131.78H199.5C198.672 131.78 198 131.108 198 130.28V130.062C198 128.681 196.881 127.562 195.5 127.562H187.867C186.487 127.562 185.367 128.681 185.367 130.062V130.28C185.367 131.108 184.696 131.78 183.867 131.78H173.649C172.821 131.78 172.149 131.108 172.149 130.28V122.681C172.149 121.853 172.821 121.181 173.649 121.181Z" fill="#94A6B5" stroke="#333333"/>
<path fill-rule="evenodd" clip-rule="evenodd" d="M125.305 167.709C123.096 167.709 121.305 169.5 121.305 171.709V182.48H117.277H106.535H98.4482C96.2391 182.48 94.4482 184.271 94.4482 186.48V232.194C94.4482 234.403 96.2391 236.194 98.4482 236.194H106.535H117.277H157.563H168.305H176.391C178.6 236.194 180.391 234.403 180.391 232.194V186.48C180.391 184.271 178.6 182.48 176.391 182.48H168.305H157.563H153.534V171.709C153.534 169.5 151.743 167.709 149.534 167.709H125.305ZM145.476 182.48V177.766C145.476 176.661 144.581 175.766 143.476 175.766H131.362C130.258 175.766 129.362 176.661 129.362 177.766V182.48H145.476Z" fill="#365486"/>
<rect x="89.5488" y="177.581" width="84.9423" height="52.714" rx="3.5" fill="#CE8055" stroke="#333333"/>
<rect x="101.634" y="177.581" width="9.74279" height="52.714" fill="#CB8F6C" stroke="#333333"/>
<rect x="152.663" y="177.581" width="9.74279" height="52.714" fill="#CB8F6C" stroke="#333333"/>
<path d="M119.905 162.81H144.134C146.067 162.81 147.634 164.377 147.634 166.31V177.924H140.577V172.367C140.577 170.986 139.457 169.867 138.077 169.867H125.962C124.582 169.867 123.462 170.986 123.462 172.367V177.924H116.405V166.31C116.405 164.377 117.972 162.81 119.905 162.81Z" fill="#CB8F6C" stroke="#333333"/>
</svg>
