<svg width="96" height="75" viewBox="0 0 96 75" fill="none" xmlns="http://www.w3.org/2000/svg">
<path d="M47.9917 7.99931C37.1259 7.99931 28.1934 12.9322 21.344 19.2817C14.9279 25.2478 10.4949 32.3305 8.22845 37.3301C10.4949 42.3297 14.9279 49.4124 21.3273 55.3785C28.1934 61.728 37.1259 66.6609 47.9917 66.6609C58.8574 66.6609 67.7899 61.728 74.6394 55.3785C81.0555 49.4124 85.4884 42.3297 87.7549 37.3301C85.4884 32.3305 81.0555 25.2478 74.656 19.2817C67.79 12.9322 58.8574 7.99931 47.9917 7.99931ZM15.8945 13.4322C23.7438 6.1328 34.5262 0 47.9917 0C61.4572 0 72.2396 6.1328 80.0889 13.4322C87.8882 20.6815 93.1044 29.3308 95.5875 35.2803C96.1375 36.5968 96.1375 38.0634 95.5875 39.3799C93.1044 45.3294 87.8882 53.9953 80.0889 61.228C72.2396 68.5274 61.4572 74.6602 47.9917 74.6602C34.5262 74.6602 23.7438 68.5274 15.8945 61.228C8.09513 53.9953 2.87892 45.3294 0.412464 39.3799C-0.137488 38.0634 -0.137488 36.5968 0.412464 35.2803C2.87892 29.3308 8.09513 20.6649 15.8945 13.4322ZM47.9917 50.6623C55.3577 50.6623 61.3238 44.6961 61.3238 37.3301C61.3238 29.9641 55.3577 23.9979 47.9917 23.9979C47.875 23.9979 47.775 23.9979 47.6584 23.9979C47.875 24.8478 47.9917 25.7478 47.9917 26.6644C47.9917 32.5472 43.2088 37.3301 37.3259 37.3301C36.4093 37.3301 35.5094 37.2134 34.6595 36.9968C34.6595 37.1134 34.6595 37.2134 34.6595 37.3301C34.6595 44.6961 40.6256 50.6623 47.9917 50.6623ZM47.9917 15.9986C53.6491 15.9986 59.0749 18.246 63.0753 22.2465C67.0757 26.2469 69.3232 31.6726 69.3232 37.3301C69.3232 42.9876 67.0757 48.4133 63.0753 52.4137C59.0749 56.4142 53.6491 58.6616 47.9917 58.6616C42.3342 58.6616 36.9085 56.4142 32.908 52.4137C28.9076 48.4133 26.6602 42.9876 26.6602 37.3301C26.6602 31.6726 28.9076 26.2469 32.908 22.2465C36.9085 18.246 42.3342 15.9986 47.9917 15.9986Z" fill="white"/>
</svg>
